Title: Bedevilled (2010)
Year: 2010
Country: South Korea
Language: Korean
Film Genre: Thriller
Subtitles: English(srt/idx,sub), Korean(smi/idx,sub)
Director: Jang Cheol-so
Cast: Seo Yeong-hee, Ji Seong-won, Baek Soo-ryeon, Park Jeong-hak, Bae Seong-woo, Woo Yong
IMDB Link: http://www.imdb.com/title/tt1646959/
Info Link: http://www.hancinema.net/korean_movie_Bedevilled.php


PLOT or SYNOPSIS
Sick of all the inhumane treatment by others, Bok-nam tries to escape the island with her daughter, but her daughter gets killed in the process. When she loses the only thing that had kept her going, Bok-nam takes a sickle in her hand for revenge.

International Film Festivals
2010 Cannes International Film Festival , International Critic's Week
2010 Puchon International Fantastic Film Festival, Feature


General
Complete name : Bedevilled.2010.DVDRip.x264.AC3-BAUM.mkv
Format : Matroska
File size : 1.47 GiB
Duration : 1h 55mn
Overall bit rate : 1 811 Kbps
Writing application : HandBrake 0.9.5
Writing library : libmkv 0.6.4.1

Video #0
ID : 1
Format : AVC
Format/Info : Advanced Video Codec
Format profile : Main@L3.0
Format settings, CABAC : Yes
Format settings, ReFrames : 4 frames
Muxing mode : Container profile=Unknown@3.0
Codec ID : V_MPEG4/ISO/AVC
Duration : 1h 55mn
Bit rate : 1 550 Kbps
Width : 720 pixels
Height : 400 pixels
Display aspect ratio : 16:9
Frame rate mode : Variable
Frame rate : 23.976 fps
Color space : YUV
Chroma subsampling : 4:2:0
Bit depth : 8 bits
Scan type : Progressive
Bits/(Pixel*Frame) : 0.224
Stream size : 1.23 GiB (84%)
Writing library : x264 core 112

Audio #1
ID : 2
Format : AC-3
Format/Info : Audio Coding 3
Mode extension : CM (complete main)
Codec ID : A_AC3
Duration : 1h 55mn
Bit rate mode : Constant
Bit rate : 256 Kbps
Channel(s) : 6 channels
Channel positions : Front: L C R, Side: L R, LFE
Sampling rate : 48.0 KHz
Bit depth : 16 bits
Stream size : 212 MiB (14%)
Language : Korean